<?xml version="1.0" encoding="UTF-8" standalone="no"?><!DOCTYPE svg PUBLIC "-//W3C//DTD SVG 1.1//EN" "http://www.w3.org/Graphics/SVG/1.1/DTD/svg11.dtd"><svg width="100%" height="100%" viewBox="0 0 512 512" version="1.1" xmlns="http://www.w3.org/2000/svg" xmlns:xlink="http://www.w3.org/1999/xlink" xml:space="preserve" style="fill-rule:evenodd;clip-rule:evenodd;stroke-linecap:round;stroke-linejoin:round;stroke-miterlimit:1.5;"><path d="M284.108,49.3l145.38,83.487c0,0 22.401,11.607 24.853,39.835c2.453,28.229 -3.036,176.832 -3.036,176.832c0,0 0.649,19.662 -20.637,34.623c-21.288,14.961 -149.494,88.105 -149.494,88.105c0,0 -23.273,13.444 -42.786,1.783c-19.513,-11.662 -157.105,-89.392 -157.105,-89.392c0,0 -20.716,-18.189 -20.196,-37.223c0.52,-19.033 1.202,-179.275 1.202,-179.275c0,0 4.225,-24.025 16.72,-31.411c12.495,-7.384 161.596,-92.945 161.596,-92.945c0,0 26.004,-9.217 43.503,5.581l0,0Z" style="fill:none;stroke:#000;stroke-width:45.72px;"/><path d="M61.087,347.35c0.52,-19.033 0.24,0.233 1.202,-179.275c0.127,-23.814 15.707,-30.504 15.707,-30.504l179.474,335.351l179.166,-333.28c0,0 18.224,8.381 17.705,32.98c-3.724,176.861 -3.036,174.034 -3.036,174.034" style="fill:none;stroke:#000;stroke-width:45.72px;"/><path d="M284.108,49.3l145.38,83.487c0,0 22.401,11.607 24.853,39.835c2.453,28.229 -3.036,176.832 -3.036,176.832c0,0 0.649,19.662 -20.637,34.623c-21.288,14.961 -149.494,88.105 -149.494,88.105c0,0 -23.273,13.444 -42.786,1.783c-19.513,-11.662 -157.105,-89.392 -157.105,-89.392c0,0 -20.716,-18.189 -20.196,-37.223c0.52,-19.033 1.202,-179.275 1.202,-179.275c0,0 4.225,-24.025 16.72,-31.411c12.495,-7.384 161.596,-92.945 161.596,-92.945c0,0 26.004,-9.217 43.503,5.581l0,0Z" style="fill:none;stroke:#fff;stroke-opacity:0.8;stroke-width:20.95px;"/><path d="M61.087,347.35c0.52,-19.033 0.24,0.233 1.202,-179.275c0.127,-23.814 15.707,-30.504 15.707,-30.504l179.474,335.351l179.166,-333.28c0,0 18.224,8.381 17.705,32.98c-3.724,176.861 -3.036,174.034 -3.036,174.034" style="fill:none;stroke:#fff;stroke-width:22.86px;"/></svg>