<?xml version="1.0" encoding="UTF-8" standalone="no"?><!DOCTYPE svg PUBLIC "-//W3C//DTD SVG 1.1//EN" "http://www.w3.org/Graphics/SVG/1.1/DTD/svg11.dtd"><svg width="100%" height="100%" viewBox="0 0 512 512" version="1.1" xmlns="http://www.w3.org/2000/svg" xmlns:xlink="http://www.w3.org/1999/xlink" xml:space="preserve" style="fill-rule:evenodd;clip-rule:evenodd;stroke-linecap:round;stroke-linejoin:round;stroke-miterlimit:1.5;"><path d="M281.014,49.078l152.634,87.653c0,0 23.519,12.186 26.094,41.823c2.575,29.637 -3.188,185.656 -3.188,185.656c0,0 0.682,20.643 -21.667,36.35c-22.35,15.708 -156.953,92.502 -156.953,92.502c0,0 -24.435,14.115 -44.921,1.872c-20.487,-12.244 -164.945,-93.853 -164.945,-93.853c0,0 -21.75,-19.096 -21.204,-39.08c0.546,-19.983 1.262,-188.221 1.262,-188.221c0,0 4.436,-25.224 17.554,-32.978c13.119,-7.753 169.66,-97.583 169.66,-97.583c0,0 27.302,-9.677 45.674,5.859l0,0Z" style="fill:none;stroke:#000;stroke-opacity:0.8;stroke-width:16px;"/><path d="M46.864,362.001c0.546,-19.983 0.252,0.244 1.262,-188.221c0.134,-25.002 16.491,-32.026 16.491,-32.026l188.43,352.085l188.106,-349.911c0,0 19.133,8.799 18.589,34.626c-3.91,185.686 -3.188,182.718 -3.188,182.718" style="fill:none;stroke:#000;stroke-width:16px;"/><path d="M281.014,49.078l152.634,87.653c0,0 23.519,12.186 26.094,41.823c2.575,29.637 -3.188,185.656 -3.188,185.656c0,0 0.682,20.643 -21.667,36.35c-22.35,15.708 -156.953,92.502 -156.953,92.502c0,0 -24.435,14.115 -44.921,1.872c-20.487,-12.244 -164.945,-93.853 -164.945,-93.853c0,0 -21.75,-19.096 -21.204,-39.08c0.546,-19.983 1.262,-188.221 1.262,-188.221c0,0 4.436,-25.224 17.554,-32.978c13.119,-7.753 169.66,-97.583 169.66,-97.583c0,0 27.302,-9.677 45.674,5.859l0,0Z" style="fill:none;stroke:#fff;stroke-opacity:0.8;stroke-width:8px;"/><path d="M46.864,362.001c0.546,-19.983 0.252,0.244 1.262,-188.221c0.134,-25.002 16.491,-32.026 16.491,-32.026l188.43,352.085l188.106,-349.911c0,0 19.133,8.799 18.589,34.626c-3.91,185.686 -3.188,182.718 -3.188,182.718" style="fill:none;stroke:#fff;stroke-width:8px;"/></svg>